<mxfile host="app.diagrams.net" modified="2024-02-14T13:28:57.547Z" agent="Mozilla/5.0 (Windows NT 10.0; Win64; x64) AppleWebKit/537.36 (KHTML, like Gecko) Chrome/121.0.0.0 Safari/537.36" version="23.1.4" etag="NRq4zfyySQJ0SBHx4e4Q" type="github">
  <diagram name="Page-1" id="rWvj7r1L1JmkacUhFCVx">
    <mxGraphModel>
      <root>
        <mxCell id="0" />
        <mxCell id="1" parent="0" />
      </root>
    </mxGraphModel>
  </diagram>
</mxfile>
